HIERARCHY
ROOT joint_Root
{
	OFFSET 0.0 0.0 0.0
	CHANNELS 6 Xposition Yposition Zposition Zrotation Xrotation Yrotation 
	JOINT Hips
	{
		OFFSET -0.726466 93.3139 -2.00062
		CHANNELS 6 Xposition Yposition Zposition Zrotation Xrotation Yrotation 
		JOINT Spine
		{
			OFFSET 15.7357 0.0 0.0
			CHANNELS 6 Xposition Yposition Zposition Zrotation Xrotation Yrotation 
			JOINT Chest
			{
				OFFSET 8.98455 -0.406207 0.0
				CHANNELS 6 Xposition Yposition Zposition Zrotation Xrotation Yrotation 
				JOINT Neck
				{
					OFFSET 16.3773 0.0 0.0
					CHANNELS 6 Xposition Yposition Zposition Zrotation Xrotation Yrotation 
					JOINT Head
					{
						OFFSET 6.45672 0.0 0.0
						CHANNELS 6 Xposition Yposition Zposition Zrotation Xrotation Yrotation 
						End Site
						{
							OFFSET 0.0 0.0 0.0
						}
					}
				}
				JOINT Shoulder_L
				{
					OFFSET 12.9942 -0.242716 4.98039
					CHANNELS 6 Xposition Yposition Zposition Zrotation Xrotation Yrotation 
					JOINT UpperArm_L
					{
						OFFSET 5.34809 0.0 0.0
						CHANNELS 6 Xposition Yposition Zposition Zrotation Xrotation Yrotation 
						JOINT LowerArm_L
						{
							OFFSET 24.3286 1.87007e-05 0.0
							CHANNELS 6 Xposition Yposition Zposition Zrotation Xrotation Yrotation 
							JOINT Hand_L
							{
								OFFSET 22.2916 0.0 0.0
								CHANNELS 6 Xposition Yposition Zposition Zrotation Xrotation Yrotation 
								End Site
								{
									OFFSET 0.0 0.0 0.0
								}
							}
						}
					}
				}
				JOINT Shoulder_R
				{
					OFFSET 12.9945 -0.242716 -4.98039
					CHANNELS 6 Xposition Yposition Zposition Zrotation Xrotation Yrotation 
					JOINT UpperArm_R
					{
						OFFSET -5.34813 0.0 0.0
						CHANNELS 6 Xposition Yposition Zposition Zrotation Xrotation Yrotation 
						JOINT LowerArm_R
						{
							OFFSET -24.3289 0.000322201 0.0
							CHANNELS 6 Xposition Yposition Zposition Zrotation Xrotation Yrotation 
							JOINT Hand_R
							{
								OFFSET -22.2915 -0.000108084 0.0
								CHANNELS 6 Xposition Yposition Zposition Zrotation Xrotation Yrotation 
								End Site
								{
									OFFSET 0.0 0.0 0.0
								}
							}
						}
					}
				}
			}
		}
		JOINT UpperLeg_L
		{
			OFFSET -2.19248 -6.46944 0.0
			CHANNELS 6 Xposition Yposition Zposition Zrotation Xrotation Yrotation 
			JOINT LowerLeg_L
			{
				OFFSET 39.0811 0.0 -1.23785e-05
				CHANNELS 6 Xposition Yposition Zposition Zrotation Xrotation Yrotation 
				JOINT Foot_L
				{
					OFFSET 40.9854 0.0 -1.26872e-05
					CHANNELS 6 Xposition Yposition Zposition Zrotation Xrotation Yrotation 
					JOINT Toes_L
					{
						OFFSET 11.7543 0.0 0.0
						CHANNELS 6 Xposition Yposition Zposition Zrotation Xrotation Yrotation 
						End Site
						{
							OFFSET 0.0 0.0 0.0
						}
					}
				}
			}
		}
		JOINT UpperLeg_R
		{
			OFFSET -2.19251 6.46944 0.0
			CHANNELS 6 Xposition Yposition Zposition Zrotation Xrotation Yrotation 
			JOINT LowerLeg_R
			{
				OFFSET -39.0811 -0.00228153 -0.0401928
				CHANNELS 6 Xposition Yposition Zposition Zrotation Xrotation Yrotation 
				JOINT Foot_R
				{
					OFFSET -40.9854 0.0 0.0
					CHANNELS 6 Xposition Yposition Zposition Zrotation Xrotation Yrotation 
					JOINT Toes_R
					{
						OFFSET -11.7543 0.0 0.0
						CHANNELS 6 Xposition Yposition Zposition Zrotation Xrotation Yrotation 
						End Site
						{
							OFFSET 0.0 0.0 0.0
						}
					}
				}
			}
		}
	}
}
MOTION
Frames:	4
Frame Time:	0.0333333
0.000000 0.000000 0.000000 0.000000 0.000000 -0.000000 -0.368587 92.332700 -0.353650 88.132900 -0.654720 3.888490 15.735700 0.000005 -0.000001 82.768100 85.537600 -81.957000 8.984550 -0.406207 -0.000000 1.096760 -1.170210 1.632080 16.377300 -0.000001 -0.000001 2.274950 -1.471970 -0.618253 6.456720 -0.000001 -0.000000 4.888230 -1.529960 -2.447630 12.994200 -0.242716 4.980390 -90.109100 0.335747 -71.996400 5.348090 -0.000007 -0.000001 -66.303800 40.349500 -15.257500 24.328600 0.000019 0.000005 1.168710 2.686380 -23.517300 22.291600 -0.000001 0.000005 4.723780 5.447360 -4.543740 12.994500 -0.242716 -4.980390 88.388900 5.124350 -72.520200 -5.348130 -0.000001 -0.000004 -65.073100 41.270800 -16.238200 -24.328900 0.000322 -0.000009 1.653100 5.881490 -15.738900 -22.291500 -0.000108 -0.000004 8.024790 5.394820 -2.769940 -2.192480 -6.469440 -0.000000 -175.689000 -8.318710 -2.621430 39.081100 -0.000007 -0.000012 -0.100416 0.240557 22.657200 40.985400 -0.000006 -0.000013 -0.010847 3.393090 -66.300800 11.754300 -0.000000 0.000003 -0.000056 -0.000628 -16.601900 -2.192510 6.469440 -0.000001 179.376000 14.948000 -179.696000 -39.081100 -0.002282 -0.040193 -0.058400 0.180940 18.835900 -40.985400 0.000008 0.000006 2.121100 7.429780 -65.471200 -11.754300 -0.000006 -0.000006 -0.007638 -0.085052 -20.036100
0.000000 0.000000 0.000000 0.000000 0.000000 -0.000000 -0.371009 92.333200 -0.397688 88.108000 -0.689586 3.915500 15.735700 0.000005 -0.000001 83.236000 85.518100 -82.394000 8.984550 -0.406207 -0.000000 1.144350 -1.103950 1.693690 16.377300 -0.000001 -0.000001 2.234570 -1.543240 -0.684023 6.456720 -0.000001 -0.000000 4.852610 -1.719280 -2.496910 12.994200 -0.242716 4.980390 -90.258500 0.789081 -71.859300 5.348090 -0.000007 -0.000001 -64.088500 38.695700 -16.672200 24.328600 0.000019 0.000005 1.819910 3.946340 -24.776400 22.291600 -0.000001 0.000005 2.935510 5.436090 -4.143560 12.994500 -0.242716 -4.980390 88.427700 5.005990 -72.538200 -5.348130 -0.000001 -0.000004 -65.256600 41.111100 -16.155100 -24.328900 0.000322 -0.000009 1.659820 5.895190 -15.764900 -22.291500 -0.000108 -0.000004 8.053180 5.395830 -2.802380 -2.192480 -6.469440 -0.000000 -175.657000 -8.333490 -2.649590 39.081100 -0.000007 -0.000012 -0.102042 0.243919 22.701700 40.985400 -0.000006 -0.000013 -0.017586 3.372570 -66.287100 11.754300 -0.000000 0.000003 -0.000052 -0.000585 -16.600300 -2.192510 6.469440 -0.000001 179.402000 14.932300 -179.710000 -39.081100 -0.002282 -0.040193 -0.058625 0.181569 18.838800 -40.985400 0.000008 0.000006 2.083290 7.463270 -65.427500 -11.754300 -0.000006 -0.000006 -0.007422 -0.083248 -19.962500
0.000000 0.000000 0.000000 0.000000 0.000000 -0.000000 -0.386986 92.331800 -0.428162 88.114500 -0.679965 3.986570 15.735700 0.000005 -0.000001 84.161700 85.486000 -83.298600 8.984550 -0.406207 -0.000000 1.223130 -0.967173 1.735080 16.377300 -0.000001 -0.000001 2.226670 -1.677850 -0.800369 6.456720 -0.000001 -0.000000 4.776570 -2.055380 -2.497750 12.994200 -0.242716 4.980390 -90.376000 1.138170 -71.716800 5.348090 -0.000007 -0.000001 -61.503600 35.213900 -18.558800 24.328600 0.000019 0.000005 2.611370 5.178950 -26.803500 22.291600 -0.000001 0.000005 1.300940 5.417960 -3.528430 12.994500 -0.242716 -4.980390 88.475600 4.853450 -72.539800 -5.348130 -0.000001 -0.000004 -65.437500 41.042900 -16.033300 -24.328900 0.000322 -0.000009 1.642470 5.799290 -15.852500 -22.291500 -0.000108 -0.000004 7.954840 5.394320 -2.753850 -2.192480 -6.469440 -0.000000 -175.647000 -8.285800 -2.606860 39.081100 -0.000007 -0.000012 -0.101507 0.242446 22.718100 40.985400 -0.000006 -0.000013 -0.023637 3.390940 -66.275800 11.754300 -0.000000 0.000003 -0.000057 -0.000630 -16.602000 -2.192510 6.469440 -0.000001 179.381000 15.013400 -179.672000 -39.081100 -0.002282 -0.040193 -0.059265 0.183183 18.863700 -40.985400 0.000008 0.000006 2.035170 7.518450 -65.408500 -11.754300 -0.000006 -0.000006 -0.007548 -0.084301 -20.005500
0.000000 0.000000 0.000000 0.000000 0.000000 -0.000000 -0.447713 92.340300 -0.493647 88.105200 -0.539008 3.978870 15.735700 0.000005 -0.000001 84.764000 85.503500 -83.870800 8.984550 -0.406207 -0.000000 1.196930 -0.871489 1.793970 16.377300 -0.000001 -0.000001 2.246290 -1.739270 -0.936143 6.456720 -0.000001 -0.000000 4.810510 -2.412840 -2.496780 12.994200 -0.242716 4.980390 -90.406400 1.213550 -71.485400 5.348090 -0.000007 -0.000001 -59.000500 30.056100 -20.852400 24.328600 0.000019 0.000005 2.994200 5.341300 -29.331900 22.291600 -0.000001 0.000005 1.053090 5.403200 -3.042450 12.994500 -0.242716 -4.980390 88.517700 4.735370 -72.596500 -5.348130 -0.000001 -0.000004 -65.569400 41.034200 -15.839000 -24.328900 0.000322 -0.000009 1.658020 5.838960 -15.892100 -22.291500 -0.000108 -0.000004 7.896520 5.394330 -2.754090 -2.192480 -6.469440 -0.000000 -175.603000 -8.267270 -2.680100 39.081100 -0.000007 -0.000012 -0.101013 0.241371 22.709300 40.985400 -0.000006 -0.000013 -0.042588 3.476160 -66.203900 11.754300 -0.000000 0.000003 -0.000062 -0.000680 -16.603900 -2.192510 6.469440 -0.000001 179.451000 15.107900 -179.696000 -39.081100 -0.002282 -0.040193 -0.057752 0.179097 18.830500 -40.985400 0.000008 0.000006 2.125400 7.454920 -65.380000 -11.754300 -0.000006 -0.000006 -0.007591 -0.084657 -20.020000
